# xmcd
#
# Track frame offsets: 
#        150
#        14666
#        30478
#        54795
#        71093
#        90928
#        103392
#        121364
#        139039
#        151287
#        164615
#        180616
#        196131
#        213725
#        230320
#        244458
#        266210
#        283210
#        295188
#        306896
#
# Disc length: 4290 seconds
#
# Revision: 2
# Processed by: cddbd v1.4PL0 Copyright (c) Steve Scherf et al.
# Submitted via: ExactAudioCopy v0.95a3
#
DISCID=2c10c014
DTITLE=Various Artist - Boot Scootin' Country Disc 11
DYEAR=1995
DGENRE=Country
TTITLE0=Rednex - Cotton Eye Joe [Original Signle Version]
TTITLE1=George Strait - I Cross My Heart
TTITLE2=Ricky Lynn Gregg - If I Had A Cheatin' Heart [Club Mix]
TTITLE3=Alabama - Forever's As Far As I'll Go
TTITLE4=Smokin' Armadillos - I'm A Cowboy
TTITLE5=Trisha Yearwood - Wrong Side Of Memphis
TTITLE6=Alan Jackson - Who's Cheatin' Who
TTITLE7=Sammy Kershaw - I Buy Her Roses
TTITLE8=Ray Price - Release Me
TTITLE9=Rhett Akins - K-I-S-S-I-N-G
TTITLE10=Garth Brooks - The American Honky Tonk Bar Association
TTITLE11=Sawyer Brown - Hard To Say
TTITLE12=Judds - Love Can Build A Bridge
TTITLE13=Ty Herndon - Love At 90 Miles An Hour
TTITLE14=Mark Chesnutt - Bubba Shot The Jukebox
TTITLE15=Osborne Brothers - Rocky Top [Championship Mix]
TTITLE16=Suzy Bogguss - Cross My Broken Heart
TTITLE17=Neal McCoy - Mudslide
TTITLE18=Martina McBride - My Baby Loves Me
TTITLE19=George Strait - All My Ex's Live In Texas
EXTD=
EXTT0=
EXTT1=
EXTT2=
EXTT3=
EXTT4=
EXTT5=
EXTT6=
EXTT7=
EXTT8=
EXTT9=
EXTT10=
EXTT11=
EXTT12=
EXTT13=
EXTT14=
EXTT15=
EXTT16=
EXTT17=
EXTT18=
EXTT19=
PLAYORDER=
